<svg xmlns="http://www.w3.org/2000/svg" viewBox="0 0 310.08 130.67"><defs><style>.cls-1{fill:#242425;}.cls-1,.cls-2,.cls-3,.cls-4{fill-rule:evenodd;}.cls-2{fill:#e73427;}.cls-3{fill:#1d539f;}.cls-4{fill:#f8b92a;}</style></defs><title>mlh-logo-color-dark</title><g id="Layer_2" data-name="Layer 2"><g id="Layer_1-2" data-name="Layer 1"><g id="Group"><path id="Shape" class="cls-1" d="M15.68,114.45a7.91,7.91,0,0,1,.9.54,1.87,1.87,0,0,1,.55.91,4.52,4.52,0,0,1,.18,1.08v13.23c0,.09,0,.27-.09.27a.34.34,0,0,1-.28.09H13.68a.32.32,0,0,1-.36-.36v-12H10.69v12c0,.09,0,.27-.09.27a.33.33,0,0,1-.27.09h-3c-.09,0-.27,0-.27-.09a.33.33,0,0,1-.09-.27v-12H4.35v12a.43.43,0,0,1-.45.46H.63a.43.43,0,0,1-.45-.46V114.72a.43.43,0,0,1,.45-.46H14.77a1.11,1.11,0,0,1,.91.19Z"/><path class="cls-1" d="M32.08,114.17a4.52,4.52,0,0,1,1.08.18,8.7,8.7,0,0,1,.91.55,1.87,1.87,0,0,1,.54.9,4.23,4.23,0,0,1,.19,1.09v13.23c0,.09,0,.27-.09.27a.36.36,0,0,1-.28.09H31.17c-.09,0-.27,0-.27-.09a.33.33,0,0,1-.09-.27V126c0-.09,0-.27-.09-.27a.33.33,0,0,0-.27-.09H25.82c-.09,0-.27,0-.27.09a.33.33,0,0,0-.09.27v4.17a.43.43,0,0,1-.45.45H21.75a.43.43,0,0,1-.46-.45V116.89a4.23,4.23,0,0,1,.19-1.09,7.91,7.91,0,0,1,.54-.9,2,2,0,0,1,.91-.55,2.28,2.28,0,0,1,1.08-.18ZM30.63,122v-4.08H25.1V122Z"/><path class="cls-1" d="M49.57,114.35a.36.36,0,0,1,.09.28v13.23a4.52,4.52,0,0,1-.18,1.08,8.7,8.7,0,0,1-.55.91,1.87,1.87,0,0,1-.9.54,2.34,2.34,0,0,1-1.09.18H39.87a4.68,4.68,0,0,1-1.09-.18,7.91,7.91,0,0,1-.9-.54,1.8,1.8,0,0,1-.55-.91,2.28,2.28,0,0,1-.18-1.08v-5a.43.43,0,0,1,.45-.45h3.27a.43.43,0,0,1,.45.45v3.36a.32.32,0,0,0,.36.36H45c.09,0,.27,0,.27-.09a.33.33,0,0,0,.09-.27V114.72c0-.09,0-.27.09-.27a.31.31,0,0,1,.27-.1H49a.41.41,0,0,1,.55,0Z"/><path class="cls-1" d="M64.34,114.17a4.52,4.52,0,0,1,1.08.18,8.7,8.7,0,0,1,.91.55,1.87,1.87,0,0,1,.54.9,4.68,4.68,0,0,1,.18,1.09v10.88a4.52,4.52,0,0,1-.18,1.08,7.3,7.3,0,0,1-.54.91,1.85,1.85,0,0,1-.91.54,2.28,2.28,0,0,1-1.08.18H56.09A4.68,4.68,0,0,1,55,130.3a7.91,7.91,0,0,1-.9-.54,1.8,1.8,0,0,1-.55-.91,2.28,2.28,0,0,1-.18-1.08V116.89a4.68,4.68,0,0,1,.18-1.09,3,3,0,0,1,.55-.9,2,2,0,0,1,.9-.55,2.34,2.34,0,0,1,1.09-.18Zm-1.45,4H57.36v8.43h5.53v-8.43Z"/><path class="cls-1" d="M85,130.21a.17.17,0,0,1,0,.27c-.09.09-.09.09-.28.09H81a.54.54,0,0,1-.36-.09l-.28-.27-2.44-4.44c0-.09-.09-.09-.18-.09H74.94c-.09,0-.09,0-.09.09v4.35a.43.43,0,0,1-.46.45H71.13a.43.43,0,0,1-.45-.45V114.63a.43.43,0,0,1,.45-.46h10.6a4.52,4.52,0,0,1,1.09.18,9.89,9.89,0,0,1,.91.55,1.87,1.87,0,0,1,.54.9,2.34,2.34,0,0,1,.18,1.09v6.16a2.7,2.7,0,0,1-.54,1.63,2.92,2.92,0,0,1-1.36,1h-.09c-.09,0-.09.09-.09.18V126L85,130.21ZM80.37,118H74.76v4h5.61v-4Z"/><path class="cls-1" d="M107,126.59a.34.34,0,0,1,.28.09.33.33,0,0,1,.09.27V130c0,.09,0,.27-.09.27a.34.34,0,0,1-.28.09H97a.43.43,0,0,1-.46-.45V114.45A.43.43,0,0,1,97,114h3.26a.43.43,0,0,1,.45.46V126a.36.36,0,0,0,.09.28.33.33,0,0,0,.27.09h6v.27Z"/><path class="cls-1" d="M122.15,114.35a.36.36,0,0,1,.09.28v3a.32.32,0,0,1-.36.36h-7.8c-.09,0-.09,0-.09.09v2.54c0,.09,0,.09.09.09h6.71a.32.32,0,0,1,.36.36v2.36c0,.09,0,.27-.09.27a.33.33,0,0,1-.27.09h-6.71c-.09,0-.09,0-.09.09v1.18h0v1.36c0,.09,0,.09.09.09h7.8c.09,0,.27,0,.27.09a.33.33,0,0,1,.09.27v2.9c0,.09,0,.27-.09.27a.33.33,0,0,1-.27.09h-11.6a.43.43,0,0,1-.46-.45v-15.5c0-.09,0-.27.09-.27a.36.36,0,0,1,.28-.09h11.59a1.84,1.84,0,0,0,.37.54Z"/><path class="cls-1" d="M137,114.17a4.68,4.68,0,0,1,1.09.18,9.63,9.63,0,0,1,.9.55,2,2,0,0,1,.55.9,4.68,4.68,0,0,1,.18,1.09v13.23c0,.09,0,.27-.09.27a.35.35,0,0,1-.28.09H136c-.09,0-.27,0-.27-.09a.33.33,0,0,1-.09-.27V126c0-.09,0-.27-.09-.27a.33.33,0,0,0-.27-.09h-4.72c-.09,0-.27,0-.27.09a.33.33,0,0,0-.09.27v4.17a.43.43,0,0,1-.45.45H126.5a.43.43,0,0,1-.46-.45V116.89a4.23,4.23,0,0,1,.19-1.09,7.91,7.91,0,0,1,.54-.9,2,2,0,0,1,.9-.55,2.34,2.34,0,0,1,1.09-.18Zm-1.45,7.8v-4.08H130V122Z"/><path class="cls-1" d="M157,121.78a.36.36,0,0,1,.09.28v5.8a4.52,4.52,0,0,1-.18,1.08,7.3,7.3,0,0,1-.54.91,1.85,1.85,0,0,1-.91.54,2.28,2.28,0,0,1-1.08.18h-8.25a4.68,4.68,0,0,1-1.09-.18,7.91,7.91,0,0,1-.9-.54,1.8,1.8,0,0,1-.55-.91,2.28,2.28,0,0,1-.18-1.08V117a4.52,4.52,0,0,1,.18-1.08,3,3,0,0,1,.55-.91,1.87,1.87,0,0,1,.9-.54,2.23,2.23,0,0,1,1.09-.19h9.7c.09,0,.27,0,.27.09a.36.36,0,0,1,.09.28v3.08c0,.09,0,.27-.09.27a.33.33,0,0,1-.27.09h-7.8c-.09,0-.27,0-.27.09a.33.33,0,0,0-.09.27V126a.35.35,0,0,0,.09.28.33.33,0,0,0,.27.09h4.62a.32.32,0,0,0,.37-.37V122c0-.09,0-.28.09-.28a.33.33,0,0,1,.27-.09h3.26a.68.68,0,0,1,.36.18Z"/><path class="cls-1" d="M174.25,114.35a.36.36,0,0,1,.09.28v13.23a4.52,4.52,0,0,1-.18,1.08,7.3,7.3,0,0,1-.54.91,1.94,1.94,0,0,1-.91.54,2.3,2.3,0,0,1-1.09.18h-8.24a4.52,4.52,0,0,1-1.09-.18,9.13,9.13,0,0,1-.91-.54,1.85,1.85,0,0,1-.54-.91,2.28,2.28,0,0,1-.18-1.08V114.63a.43.43,0,0,1,.45-.46h3.26a.43.43,0,0,1,.46.46v11.5a.34.34,0,0,0,.09.28.33.33,0,0,0,.27.09h4.62a.33.33,0,0,0,.27-.09.34.34,0,0,0,.09-.28v-11.5c0-.09,0-.28.09-.28a.34.34,0,0,1,.28-.09h3.26a.36.36,0,0,1,.45.09Z"/><path class="cls-1" d="M190.47,114.35a.36.36,0,0,1,.09.28v3a.32.32,0,0,1-.36.36h-7.79c-.09,0-.09,0-.09.09v2.54c0,.09,0,.09.09.09h6.7a.32.32,0,0,1,.36.36v2.36c0,.09,0,.27-.09.27a.33.33,0,0,1-.27.09h-6.7c-.09,0-.09,0-.09.09v1.18h0v1.36c0,.09,0,.09.09.09h7.79c.09,0,.27,0,.27.09a.33.33,0,0,1,.09.27v2.9c0,.09,0,.27-.09.27a.33.33,0,0,1-.27.09H178.6a.43.43,0,0,1-.45-.45v-15.5c0-.09,0-.27.09-.27a.33.33,0,0,1,.27-.09h11.6a1.7,1.7,0,0,0,.36.54Z"/><path class="cls-1" d="M215.57,114.17c.09,0,.27,0,.27.09a.35.35,0,0,1,.09.28V130c0,.09,0,.27-.09.27a.33.33,0,0,1-.27.09h-3.26c-.09,0-.27,0-.27-.09A.33.33,0,0,1,212,130v-5.44a.33.33,0,0,0-.09-.27.36.36,0,0,0-.28-.09H207c-.09,0-.27,0-.27.09a.33.33,0,0,0-.09.27V130a.43.43,0,0,1-.45.45h-3.27a.43.43,0,0,1-.45-.45V114.54a.43.43,0,0,1,.45-.46h3.27a.43.43,0,0,1,.45.46v5.25a.43.43,0,0,0,.45.45h4.62a.35.35,0,0,0,.28-.09.33.33,0,0,0,.09-.27v-5.25c0-.09,0-.28.09-.28a.33.33,0,0,1,.27-.09h3.17v-.09Z"/><path class="cls-1" d="M230.7,114.17a4.52,4.52,0,0,1,1.09.18c.36.19.63.37.91.55a1.87,1.87,0,0,1,.54.9,4.68,4.68,0,0,1,.18,1.09v13.23c0,.09,0,.27-.09.27a.33.33,0,0,1-.27.09H229.8c-.09,0-.28,0-.28-.09a.33.33,0,0,1-.09-.27V126c0-.09,0-.27-.09-.27a.33.33,0,0,0-.27-.09h-4.62c-.09,0-.27,0-.27.09a.33.33,0,0,0-.09.27v4.17a.43.43,0,0,1-.46.45h-3.26a.43.43,0,0,1-.45-.45V116.89a4.68,4.68,0,0,1,.18-1.09,7.91,7.91,0,0,1,.54-.9,2.05,2.05,0,0,1,.91-.55,2.32,2.32,0,0,1,1.09-.18Zm-1.36,7.8v-4.08h-5.52V122Z"/><path class="cls-1" d="M241.3,118.25a.33.33,0,0,0-.09.27v7.61a.34.34,0,0,0,.09.28.36.36,0,0,0,.28.09h7.52c.09,0,.27,0,.27.09a.33.33,0,0,1,.09.27v3.08c0,.09,0,.27-.09.27a.33.33,0,0,1-.27.09h-9.34a4.52,4.52,0,0,1-1.08-.18,7.3,7.3,0,0,1-.91-.54,1.9,1.9,0,0,1-.54-.91,2.3,2.3,0,0,1-.18-1.09v-11a4.68,4.68,0,0,1,.18-1.09,7.91,7.91,0,0,1,.54-.9,1.8,1.8,0,0,1,.91-.55,2.28,2.28,0,0,1,1.08-.18h9.34c.09,0,.27,0,.27.09a.33.33,0,0,1,.09.27v3.08c0,.1,0,.28-.09.28a.33.33,0,0,1-.27.09h-7.52c-.09.45-.18.54-.28.54Z"/><path class="cls-1" d="M262.6,121.06c-.09.09-.09.09,0,.18l5.44,9a.17.17,0,0,1,0,.27c-.09.09-.09.09-.28.09h-3.89a.54.54,0,0,1-.36-.09l-.28-.27-3.53-6.34c-.09-.09-.09-.09-.09,0l-1.9,2.08a.48.48,0,0,0-.19.37.81.81,0,0,0-.09.45v3.44a.43.43,0,0,1-.45.46h-3.17a.43.43,0,0,1-.45-.46V114.72a.43.43,0,0,1,.45-.46h3.26a.43.43,0,0,1,.45.46v7l6.08-7.06a1.45,1.45,0,0,1,.36-.28.68.68,0,0,1,.36-.09h3.9c.09,0,.18,0,.18.09a.34.34,0,0,1-.09.28l-5.71,6.43Z"/><path class="cls-1" d="M275.19,130.12a.43.43,0,0,1-.45.45h-3.26a.43.43,0,0,1-.45-.45V114.63a.43.43,0,0,1,.45-.46h3.26a.43.43,0,0,1,.45.46v15.49Z"/><path class="cls-1" d="M291,114.45a8.11,8.11,0,0,1,.91.54,1.85,1.85,0,0,1,.54.91,2.28,2.28,0,0,1,.18,1.08v13.23c0,.09,0,.27-.09.27a.33.33,0,0,1-.27.09H289a.32.32,0,0,1-.36-.36V118.7a.31.31,0,0,0-.1-.27.33.33,0,0,0-.27-.09h-4.62c-.09,0-.27,0-.27.09s-.09.18-.09.27v11.51a.43.43,0,0,1-.45.46h-3.27a.43.43,0,0,1-.45-.46V114.72a.43.43,0,0,1,.45-.46h10.61a1,1,0,0,1,.81.19Z"/><path class="cls-1" d="M309.9,121.78a.36.36,0,0,1,.09.28v5.8a4.52,4.52,0,0,1-.18,1.08,7.3,7.3,0,0,1-.54.91,1.94,1.94,0,0,1-.91.54,2.32,2.32,0,0,1-1.09.18H299a4.52,4.52,0,0,1-1.09-.18,8.11,8.11,0,0,1-.91-.54,1.85,1.85,0,0,1-.54-.91,2.28,2.28,0,0,1-.18-1.08V117a4.52,4.52,0,0,1,.18-1.08A2.93,2.93,0,0,1,297,115a1.9,1.9,0,0,1,.91-.54,2.2,2.2,0,0,1,1.09-.19h9.69c.09,0,.27,0,.27.09a.36.36,0,0,1,.09.28v3.08c0,.09,0,.27-.09.27a.33.33,0,0,1-.27.09h-7.79c-.09,0-.27,0-.27.09a.33.33,0,0,0-.09.27V126a.35.35,0,0,0,.09.28.33.33,0,0,0,.27.09h4.62a.33.33,0,0,0,.27-.09.35.35,0,0,0,.09-.28V122c0-.09,0-.28.09-.28a.33.33,0,0,1,.27-.09h3.27a.47.47,0,0,1,.36.18Z"/></g><path class="cls-2" d="M107.92,10.6a19.54,19.54,0,0,0-3.71-5.44,17.68,17.68,0,0,0-5.44-3.71A18.87,18.87,0,0,0,92.06,0H2.9A2.78,2.78,0,0,0,.75.75,2.78,2.78,0,0,0,0,2.9V103.21c0,1.9.91,2.81,2.81,2.81H23.2c1.9,0,2.81-.91,2.81-2.81V25.1H42.59v78.11A2.78,2.78,0,0,0,45.4,106H64.06A2.47,2.47,0,0,0,66,105.2a3,3,0,0,0,.72-2V25.1H83.27v78.11a3,3,0,0,0,.73,2,2.32,2.32,0,0,0,1.9.82h20.57a2.8,2.8,0,0,0,2.81-2.81V17.31A16.7,16.7,0,0,0,107.92,10.6Z"/><path class="cls-3" d="M200.89,81.1a2.54,2.54,0,0,0-2-.82v.09H156a2.83,2.83,0,0,1-2.09-.72,2.45,2.45,0,0,1-.9-2V3c0-1.9-1-2.9-3-2.9H128.49c-2,0-3,1-3,2.9V103.21c0,1.9,1,2.9,3,2.9H198.9a2.64,2.64,0,0,0,2-.82,3,3,0,0,0,.82-2.08v-20A2.88,2.88,0,0,0,200.89,81.1Z"/><path class="cls-4" d="M309.17.91a2.83,2.83,0,0,0-2.08-.82H285.16a2.84,2.84,0,0,0-2.08.82A2.72,2.72,0,0,0,282.17,3V37a2.79,2.79,0,0,1-2.9,2.9H248.55c-1.75,0-2.68-.81-2.9-2.29V3c0-1.9-1-2.9-3-2.9H220.83c-2,0-3,1-3,2.9V103.48c0,1.9,1,2.9,3,2.9h21.83c2,0,3-1,3-2.9V67.76a3,3,0,0,1,.82-1.34,3.24,3.24,0,0,1,2.08-.73h30.72a2.71,2.71,0,0,1,2.09.73,2.67,2.67,0,0,1,.81,2v35.07a2.94,2.94,0,0,0,.91,2.09,2.87,2.87,0,0,0,2.08.81h21.93a2.86,2.86,0,0,0,2.08-.81,2.75,2.75,0,0,0,.91-2.09V3A2.9,2.9,0,0,0,309.17.91Z"/></g></g></svg>